<svg width="80" height="80" viewBox="0 0 80 80" fill="none" xmlns="http://www.w3.org/2000/svg">
<rect x="0.5" y="0.5" width="79" height="79" rx="14.5" fill="white"/>
<rect x="0.5" y="0.5" width="79" height="79" rx="14.5" stroke="#D4D4D4"/>
<g filter="url(#filter0_d_1373_387)">
<mask id="path-2-outside-1_1373_387" maskUnits="userSpaceOnUse" x="19" y="26" width="20" height="25" fill="black">
<rect fill="white" x="19" y="26" width="20" height="25"/>
<path d="M24.78 43.73V39.47H28.71C29.47 39.47 30.12 39.32 30.66 39.02C31.22 38.72 31.65 38.3 31.95 37.76C32.25 37.2 32.4 36.56 32.4 35.84C32.4 35.08 32.25 34.43 31.95 33.89C31.65 33.33 31.22 32.91 30.66 32.63C30.12 32.33 29.47 32.18 28.71 32.18H24.78V27.92H28.47C30.33 27.92 31.92 28.23 33.24 28.85C34.58 29.47 35.6 30.35 36.3 31.49C37.02 32.63 37.38 34 37.38 35.6V36.08C37.38 37.64 37.02 39 36.3 40.16C35.6 41.3 34.58 42.18 33.24 42.8C31.92 43.42 30.33 43.73 28.47 43.73H24.78ZM20.46 50V27.92H25.38V50H20.46Z"/>
</mask>
<path d="M24.78 43.73V39.47H28.71C29.47 39.47 30.12 39.32 30.66 39.02C31.22 38.72 31.65 38.3 31.95 37.76C32.25 37.2 32.4 36.56 32.4 35.84C32.4 35.08 32.25 34.43 31.95 33.89C31.65 33.33 31.22 32.91 30.66 32.63C30.12 32.33 29.47 32.18 28.71 32.18H24.78V27.92H28.47C30.33 27.92 31.92 28.23 33.24 28.85C34.58 29.47 35.6 30.35 36.3 31.49C37.02 32.63 37.38 34 37.38 35.6V36.08C37.38 37.64 37.02 39 36.3 40.16C35.6 41.3 34.58 42.18 33.24 42.8C31.92 43.42 30.33 43.73 28.47 43.73H24.78ZM20.46 50V27.92H25.38V50H20.46Z" fill="#324766"/>
<path d="M24.78 43.73H23.78V44.73H24.78V43.73ZM24.78 39.47V38.47H23.78V39.47H24.78ZM30.66 39.02L30.1878 38.1385L30.181 38.1421L30.1744 38.1458L30.66 39.02ZM31.95 37.76L32.8242 38.2456L32.8279 38.239L32.8315 38.2322L31.95 37.76ZM31.95 33.89L31.0685 34.3622L31.0721 34.369L31.0758 34.3756L31.95 33.89ZM30.66 32.63L30.1744 33.5042L30.1934 33.5147L30.2128 33.5244L30.66 32.63ZM24.78 32.18H23.78V33.18H24.78V32.18ZM24.78 27.92V26.92H23.78V27.92H24.78ZM33.24 28.85L32.8149 29.7551L32.8201 29.7576L33.24 28.85ZM36.3 31.49L35.4478 32.0133L35.4545 32.024L36.3 31.49ZM36.3 40.16L35.4503 39.6326L35.4478 39.6367L36.3 40.16ZM33.24 42.8L32.8201 41.8924L32.8149 41.8949L33.24 42.8ZM20.46 50H19.46V51H20.46V50ZM20.46 27.92V26.92H19.46V27.92H20.46ZM25.38 27.92H26.38V26.92H25.38V27.92ZM25.38 50V51H26.38V50H25.38ZM25.78 43.73V39.47H23.78V43.73H25.78ZM24.78 40.47H28.71V38.47H24.78V40.47ZM28.71 40.47C29.6012 40.47 30.4265 40.2937 31.1456 39.8942L30.1744 38.1458C29.8135 38.3463 29.3388 38.47 28.71 38.47V40.47ZM31.1322 39.9015C31.8563 39.5136 32.4282 38.9584 32.8242 38.2456L31.0758 37.2744C30.8718 37.6416 30.5837 37.9264 30.1878 38.1385L31.1322 39.9015ZM32.8315 38.2322C33.2192 37.5086 33.4 36.7025 33.4 35.84H31.4C31.4 36.4175 31.2809 36.8914 31.0685 37.2878L32.8315 38.2322ZM33.4 35.84C33.4 34.9488 33.2237 34.1235 32.8242 33.4044L31.0758 34.3756C31.2763 34.7365 31.4 35.2112 31.4 35.84H33.4ZM32.8315 33.4178C32.4354 32.6784 31.855 32.1095 31.1072 31.7356L30.2128 33.5244C30.585 33.7105 30.8646 33.9816 31.0685 34.3622L32.8315 33.4178ZM31.1456 31.7558C30.4265 31.3563 29.6012 31.18 28.71 31.18V33.18C29.3388 33.18 29.8135 33.3037 30.1744 33.5042L31.1456 31.7558ZM28.71 31.18H24.78V33.18H28.71V31.18ZM25.78 32.18V27.92H23.78V32.18H25.78ZM24.78 28.92H28.47V26.92H24.78V28.92ZM28.47 28.92C30.2222 28.92 31.6592 29.2123 32.8149 29.7551L33.6651 27.9449C32.1808 27.2477 30.4378 26.92 28.47 26.92V28.92ZM32.8201 29.7576C34.0006 30.3038 34.8615 31.0584 35.4478 32.0133L37.1522 30.9667C36.3385 29.6416 35.1594 28.6362 33.6599 27.9424L32.8201 29.7576ZM35.4545 32.024C36.0561 32.9764 36.38 34.1533 36.38 35.6H38.38C38.38 33.8467 37.9839 32.2836 37.1455 30.956L35.4545 32.024ZM36.38 35.6V36.08H38.38V35.6H36.38ZM36.38 36.08C36.38 37.4808 36.0587 38.6526 35.4504 39.6326L37.1496 40.6874C37.9813 39.3474 38.38 37.7992 38.38 36.08H36.38ZM35.4478 39.6367C34.8615 40.5916 34.0006 41.3462 32.8201 41.8924L33.6599 43.7076C35.1594 43.0138 36.3385 42.0084 37.1522 40.6833L35.4478 39.6367ZM32.8149 41.8949C31.6592 42.4377 30.2222 42.73 28.47 42.73V44.73C30.4378 44.73 32.1808 44.4023 33.6651 43.7051L32.8149 41.8949ZM28.47 42.73H24.78V44.73H28.47V42.73ZM21.46 50V27.92H19.46V50H21.46ZM20.46 28.92H25.38V26.92H20.46V28.92ZM24.38 27.92V50H26.38V27.92H24.38ZM25.38 49H20.46V51H25.38V49Z" fill="#F0F0F0" mask="url(#path-2-outside-1_1373_387)"/>
</g>
<g filter="url(#filter1_d_1373_387)">
<mask id="path-4-outside-2_1373_387" maskUnits="userSpaceOnUse" x="40" y="27" width="24" height="24" fill="black">
<rect fill="white" x="40" y="27" width="24" height="24"/>
<path d="M55.86 50L48.3 39.77H45.27L54.45 28.1H60.09L51.84 38.57L51.78 36.44L61.8 50H55.86ZM41.46 50V28.1H46.38V50H41.46Z"/>
</mask>
<path d="M55.86 50L48.3 39.77H45.27L54.45 28.1H60.09L51.84 38.57L51.78 36.44L61.8 50H55.86ZM41.46 50V28.1H46.38V50H41.46Z" fill="#6F8695"/>
<path d="M55.86 50L55.0558 50.5943L55.3556 51H55.86V50ZM48.3 39.77L49.1042 39.1757L48.8044 38.77H48.3V39.77ZM45.27 39.77L44.484 39.1517L43.2111 40.77H45.27V39.77ZM54.45 28.1V27.1H53.9643L53.664 27.4817L54.45 28.1ZM60.09 28.1L60.8755 28.7189L62.1511 27.1H60.09V28.1ZM51.84 38.57L50.8404 38.5982L50.9181 41.3557L52.6255 39.1889L51.84 38.57ZM51.78 36.44L52.5843 35.8457L50.6907 33.2831L50.7804 36.4682L51.78 36.44ZM61.8 50V51H63.7823L62.6043 49.4057L61.8 50ZM41.46 50H40.46V51H41.46V50ZM41.46 28.1V27.1H40.46V28.1H41.46ZM46.38 28.1H47.38V27.1H46.38V28.1ZM46.38 50V51H47.38V50H46.38ZM56.6642 49.4057L49.1042 39.1757L47.4958 40.3643L55.0558 50.5943L56.6642 49.4057ZM48.3 38.77H45.27V40.77H48.3V38.77ZM46.056 40.3883L55.236 28.7183L53.664 27.4817L44.484 39.1517L46.056 40.3883ZM54.45 29.1H60.09V27.1H54.45V29.1ZM59.3045 27.4811L51.0545 37.9511L52.6255 39.1889L60.8755 28.7189L59.3045 27.4811ZM52.8396 38.5418L52.7796 36.4118L50.7804 36.4682L50.8404 38.5982L52.8396 38.5418ZM50.9758 37.0343L60.9958 50.5943L62.6043 49.4057L52.5843 35.8457L50.9758 37.0343ZM61.8 49H55.86V51H61.8V49ZM42.46 50V28.1H40.46V50H42.46ZM41.46 29.1H46.38V27.1H41.46V29.1ZM45.38 28.1V50H47.38V28.1H45.38ZM46.38 49H41.46V51H46.38V49Z" fill="#F0F0F0" mask="url(#path-4-outside-2_1373_387)"/>
</g>
<defs>
<filter id="filter0_d_1373_387" x="12.46" y="21.92" width="32.92" height="38.08" filterUnits="userSpaceOnUse" color-interpolation-filters="sRGB">
<feFlood flood-opacity="0" result="BackgroundImageFix"/>
<feColorMatrix in="SourceAlpha" type="matrix" values="0 0 0 0 0 0 0 0 0 0 0 0 0 0 0 0 0 0 127 0" result="hardAlpha"/>
<feOffset dy="2"/>
<feGaussianBlur stdDeviation="4"/>
<feColorMatrix type="matrix" values="0 0 0 0 0.133333 0 0 0 0 0.266667 0 0 0 0 0.4 0 0 0 0.15 0"/>
<feBlend mode="normal" in2="BackgroundImageFix" result="effect1_dropShadow_1373_387"/>
<feBlend mode="normal" in="SourceGraphic" in2="effect1_dropShadow_1373_387" result="shape"/>
</filter>
<filter id="filter1_d_1373_387" x="33.46" y="22.1" width="36.3401" height="37.9" filterUnits="userSpaceOnUse" color-interpolation-filters="sRGB">
<feFlood flood-opacity="0" result="BackgroundImageFix"/>
<feColorMatrix in="SourceAlpha" type="matrix" values="0 0 0 0 0 0 0 0 0 0 0 0 0 0 0 0 0 0 127 0" result="hardAlpha"/>
<feOffset dy="2"/>
<feGaussianBlur stdDeviation="4"/>
<feColorMatrix type="matrix" values="0 0 0 0 0.133333 0 0 0 0 0.266667 0 0 0 0 0.4 0 0 0 0.15 0"/>
<feBlend mode="normal" in2="BackgroundImageFix" result="effect1_dropShadow_1373_387"/>
<feBlend mode="normal" in="SourceGraphic" in2="effect1_dropShadow_1373_387" result="shape"/>
</filter>
</defs>
</svg>
