<svg width="87" height="31" viewBox="0 0 87 31" fill="none" xmlns="http://www.w3.org/2000/svg">
<path fill-rule="evenodd" clip-rule="evenodd" d="M0 3.216V14.88H0.116V15V26.68V27.18H0.616H3.176H3.676V26.68V23.084H3.75843L6.37773 26.96L6.52643 27.18H6.792H9.672H10.6306L10.0821 26.3939L6.78234 21.6647L9.44377 18.2176L10.0657 17.412H9.048H6.36H6.11272L5.96263 17.6085L3.676 20.6027V15V14.5H3.176H1.2V10.1709C1.5497 10.755 1.9977 11.1993 2.544 11.504C3.10933 11.8027 3.728 11.952 4.4 11.952C5.02933 11.952 5.59467 11.8347 6.096 11.6C6.608 11.3547 7.04 11.0293 7.392 10.624C7.75467 10.208 8.032 9.73867 8.224 9.216C8.416 8.68267 8.512 8.128 8.512 7.552V7.328C8.512 6.752 8.416 6.20267 8.224 5.68C8.04267 5.14667 7.77067 4.67733 7.408 4.272C7.056 3.856 6.624 3.53067 6.112 3.296C5.61067 3.05067 5.05067 2.928 4.432 2.928C3.73867 2.928 3.10933 3.08267 2.544 3.392C1.98933 3.69067 1.54667 4.13333 1.216 4.72C1.11754 4.90051 1.03221 5.09365 0.96 5.29941V3.216H0ZM5.888 10.448C5.42933 10.7467 4.88 10.896 4.24 10.896C3.664 10.896 3.14133 10.768 2.672 10.512C2.20267 10.256 1.82933 9.904 1.552 9.456C1.28533 8.99733 1.152 8.46933 1.152 7.872V7.088C1.152 6.45867 1.28533 5.91467 1.552 5.456C1.82933 4.98667 2.20267 4.624 2.672 4.368C3.14133 4.112 3.664 3.984 4.24 3.984C4.86933 3.984 5.41333 4.13867 5.872 4.448C6.33067 4.74667 6.68267 5.15733 6.928 5.68C7.184 6.192 7.312 6.77867 7.312 7.44C7.312 8.08 7.18933 8.66667 6.944 9.2C6.69867 9.72267 6.34667 10.1387 5.888 10.448ZM10.9375 0V11.68H12.1375V6.704C12.1375 5.91467 12.3615 5.28 12.8095 4.8C13.2575 4.30933 13.8602 4.064 14.6175 4.064C15.3215 4.064 15.8815 4.28267 16.2975 4.72C16.7135 5.15733 16.9215 5.75467 16.9215 6.512V11.68H18.1055V6.768C18.1055 5.57333 17.8388 4.64 17.3055 3.968C16.7828 3.296 16.0095 2.96 14.9855 2.96H14.9215C14.2175 2.96 13.6308 3.12533 13.1615 3.456C12.7131 3.7688 12.3718 4.20901 12.1375 4.77663V0H10.9375ZM20.2792 13.904V14.976H21.3032C21.8366 14.976 22.3113 14.9013 22.7273 14.752C23.1432 14.6027 23.5006 14.3573 23.7992 14.016C24.0979 13.6853 24.3326 13.248 24.5033 12.704L27.4792 3.216H26.3113L24.0558 10.464H23.6459L21.0473 3.216H19.8153L22.8873 11.472H23.0312H23.7421L23.4633 12.368C23.3353 12.7627 23.1806 13.072 22.9993 13.296C22.8179 13.52 22.5939 13.6747 22.3272 13.76C22.0606 13.856 21.7406 13.904 21.3673 13.904H20.2792ZM31.3095 11.584C31.8642 11.8293 32.5042 11.952 33.2295 11.952C33.9548 11.952 34.5948 11.8293 35.1495 11.584C35.7042 11.328 36.1682 10.992 36.5415 10.576C36.9255 10.1493 37.2135 9.67467 37.4055 9.152C37.5975 8.62933 37.6935 8.096 37.6935 7.552V7.328C37.6935 6.784 37.5922 6.25067 37.3895 5.728C37.1975 5.19467 36.9095 4.72 36.5255 4.304C36.1415 3.888 35.6722 3.55733 35.1175 3.312C34.5735 3.056 33.9442 2.928 33.2295 2.928C32.5255 2.928 31.8962 3.056 31.3415 3.312C30.7975 3.55733 30.3335 3.888 29.9495 4.304C29.5655 4.72 29.2722 5.19467 29.0695 5.728C28.8668 6.25067 28.7655 6.784 28.7655 7.328V7.552C28.7655 8.096 28.8615 8.62933 29.0535 9.152C29.2562 9.67467 29.5442 10.1493 29.9175 10.576C30.3015 10.992 30.7655 11.328 31.3095 11.584ZM35.0055 10.416C34.5255 10.7253 33.9335 10.88 33.2295 10.88C32.5362 10.88 31.9442 10.7253 31.4535 10.416C30.9735 10.096 30.6055 9.68 30.3495 9.168C30.0935 8.64533 29.9655 8.06933 29.9655 7.44C29.9655 6.8 30.0935 6.224 30.3495 5.712C30.6162 5.18933 30.9948 4.77867 31.4855 4.48C31.9762 4.17067 32.5575 4.016 33.2295 4.016C33.9122 4.016 34.4988 4.17067 34.9895 4.48C35.4802 4.77867 35.8535 5.18933 36.1095 5.712C36.3762 6.224 36.5095 6.8 36.5095 7.44C36.5095 8.06933 36.3815 8.64533 36.1255 9.168C35.8695 9.68 35.4962 10.096 35.0055 10.416ZM45.427 11.52C45.8537 11.6907 46.3603 11.776 46.947 11.776H48.291V10.688H46.771C46.2803 10.688 45.9017 10.56 45.635 10.304C45.3683 10.0373 45.235 9.65867 45.235 9.168V4.128H48.291V3.216H45.235V0.544H44.083V3.216H42.563V4.128H44.083V8.992C44.083 9.68533 44.2003 10.24 44.435 10.656C44.6697 11.0613 45.0003 11.3493 45.427 11.52ZM50.6094 0V11.68H51.8094V6.704C51.8094 5.91467 52.0334 5.28 52.4814 4.8C52.9294 4.30933 53.532 4.064 54.2894 4.064C54.9934 4.064 55.5534 4.28267 55.9694 4.72C56.3854 5.15733 56.5934 5.75467 56.5934 6.512V11.68H57.7774V6.768C57.7774 5.57333 57.5107 4.64 56.9774 3.968C56.4547 3.296 55.6814 2.96 54.6574 2.96H54.5934C53.8894 2.96 53.3027 3.12533 52.8334 3.456C52.385 3.76881 52.0437 4.20901 51.8094 4.77663V0H50.6094ZM65.9176 9.97882V11.68H66.8776V6.24C66.8776 5.49333 66.755 4.896 66.5096 4.448C66.2643 3.98933 65.875 3.65333 65.3416 3.44C64.819 3.22667 64.1256 3.12 63.2616 3.12C63.0163 3.12 62.7603 3.12533 62.4936 3.136C62.2376 3.136 61.987 3.14667 61.7416 3.168C61.4963 3.18933 61.2563 3.21067 61.0216 3.232V4.288C61.2456 4.26667 61.5016 4.25067 61.7896 4.24C62.0883 4.21867 62.3976 4.20267 62.7176 4.192C63.0483 4.18133 63.3736 4.176 63.6936 4.176C64.387 4.176 64.899 4.34667 65.2296 4.688C65.5603 5.01867 65.7256 5.49867 65.7256 6.128V6.528H63.3576C62.6536 6.528 62.051 6.63467 61.5496 6.848C61.059 7.05067 60.6803 7.34933 60.4136 7.744C60.1576 8.13867 60.0296 8.61867 60.0296 9.184C60.0296 9.76 60.1523 10.2507 60.3976 10.656C60.6536 11.0613 61.011 11.3707 61.4696 11.584C61.9283 11.7973 62.4563 11.904 63.0536 11.904C63.6403 11.904 64.1523 11.7973 64.5896 11.584C65.027 11.3707 65.3736 11.056 65.6296 10.64C65.7487 10.4415 65.8447 10.2211 65.9176 9.97882ZM65.7256 8.56C65.7043 9.168 65.571 9.648 65.3256 10C65.0803 10.3413 64.7763 10.5867 64.4136 10.736C64.051 10.8747 63.6723 10.944 63.2776 10.944C62.6376 10.944 62.131 10.7893 61.7576 10.48C61.3843 10.16 61.1976 9.73333 61.1976 9.2C61.1976 8.67733 61.3736 8.256 61.7256 7.936C62.0883 7.60533 62.6056 7.44 63.2776 7.44H65.7256V8.56ZM69.875 3.216V11.68H71.075V6.592C71.075 5.83467 71.299 5.22667 71.747 4.768C72.2057 4.29867 72.8083 4.064 73.555 4.064C74.2803 4.064 74.8457 4.288 75.251 4.736C75.6563 5.184 75.859 5.776 75.859 6.512V11.68H77.043V6.768C77.043 5.56267 76.7817 4.62933 76.259 3.968C75.7363 3.296 74.9417 2.96 73.875 2.96H73.827C73.1123 2.96 72.5203 3.11467 72.051 3.424C71.5817 3.73333 71.2297 4.17067 70.995 4.736C70.9336 4.8838 70.8803 5.03926 70.835 5.20238V3.216H69.875ZM81.5833 11.52C82.0099 11.6907 82.5166 11.776 83.1032 11.776H84.4473V10.688H82.9272C82.4366 10.688 82.0579 10.56 81.7912 10.304C81.5246 10.0373 81.3913 9.65867 81.3913 9.168V4.128H84.4473V3.216H81.3913V0.544H80.2393V3.216H78.7192V4.128H80.2393V8.992C80.2393 9.68533 80.3566 10.24 80.5912 10.656C80.8259 11.0613 81.1566 11.3493 81.5833 11.52ZM6.20244 21.7074L6.46208 22.0796L9.32313 26.18L9.672 26.68H9.06232H6.792L4.024 22.584H3.676H3.42113H3.176V22.8773V23.084V26.18V26.68H2.676H1.116H0.616V26.18V15.5V15H1.116H2.676H3.176V15.5V21.2574V22.0812L3.676 21.4265L6.36 17.912H8.41632H9.048L8.66197 18.412L6.48247 21.235L6.20535 21.5939L6.16221 21.6498L6.20244 21.7074ZM16.4147 26.68V27.18H16.9147H19.4748H19.9748V26.68V22.236V21.736V21.624C19.9748 21.2125 20.0871 20.9338 20.2697 20.736C20.4623 20.5381 20.715 20.428 21.0748 20.428C21.4136 20.428 21.642 20.5327 21.8124 20.7162L21.8187 20.723L21.8252 20.7296C22.0028 20.9072 22.1108 21.1551 22.1108 21.528V26.68V27.18H22.6108H25.1708H25.6708V26.68V21.688C25.6708 20.3138 25.407 19.1866 24.8039 18.3815C24.1847 17.5441 23.2844 17.14 22.1788 17.14H22.0667C21.3246 17.14 20.6666 17.3203 20.1267 17.7141C20.0747 17.7511 20.024 17.7896 19.9748 17.8298V15V14.5H19.4748H16.9147H16.4147V15V26.68ZM19.4748 21.736V22.236V26.18V26.68H18.9748H17.4147H16.9147V26.18V15.5V15H17.4147H18.9748H19.4748V15.5V18.3525V19.372C19.6081 19.0439 19.7748 18.7624 19.9748 18.5275C20.108 18.371 20.256 18.2351 20.4188 18.12C20.8561 17.8 21.4054 17.64 22.0667 17.64H22.1788C23.1494 17.64 23.8908 17.9867 24.4028 18.68C24.9148 19.3627 25.1708 20.3653 25.1708 21.688V26.18V26.68H24.6708H23.1108H22.6108V26.18V21.528C22.6108 21.048 22.4667 20.664 22.1788 20.376C21.9014 20.0773 21.5334 19.928 21.0748 19.928C20.6304 19.928 20.2637 20.0606 19.9748 20.3257C19.9516 20.3469 19.9289 20.369 19.9067 20.392C19.7983 20.5084 19.7103 20.6392 19.6427 20.7844C19.5307 21.0248 19.4748 21.3047 19.4748 21.624V21.736ZM38.2282 26.68V27.18H38.7282H40.7602H41.2602V26.68V21.304C41.2602 20.4318 41.0886 19.671 40.7055 19.057C40.3254 18.4372 39.7703 17.9828 39.0648 17.6906C38.378 17.4017 37.5558 17.268 36.6162 17.268C36.3012 17.268 35.9655 17.2734 35.6091 17.2842C35.2518 17.2951 34.9047 17.3113 34.5681 17.333C34.2349 17.3545 33.943 17.3761 33.6929 17.3979L33.2363 17.4376V17.896V20.056V20.5893L33.7684 20.555C34.0968 20.5338 34.4627 20.5126 34.8665 20.4913C35.268 20.4702 35.6585 20.4544 36.0381 20.4438C36.42 20.4332 36.7242 20.428 36.9522 20.428C37.3549 20.428 37.5346 20.5253 37.6142 20.6088C37.6555 20.6522 37.6964 20.7144 37.729 20.804H36.7122C35.8928 20.804 35.15 20.9103 34.4914 21.1332C33.8202 21.3496 33.2684 21.7023 32.8668 22.2064C32.4495 22.7192 32.2602 23.3606 32.2602 24.088C32.2602 24.7526 32.4121 25.3544 32.7363 25.873L32.7362 25.873L32.7393 25.8778C33.059 26.3765 33.5001 26.7573 34.0489 27.0193L34.0528 27.0211C34.6103 27.2813 35.2394 27.404 35.9283 27.404C36.5949 27.404 37.1927 27.2815 37.699 27.0095C37.8911 26.9084 38.0677 26.7905 38.2282 26.6559V26.68ZM38.8723 18.152C39.4909 18.408 39.9603 18.7973 40.2803 19.32C40.6003 19.832 40.7602 20.4933 40.7602 21.304V26.18V26.68H40.2602H39.2282H38.7282V26.18V26.1123V25.7684V25.7614V24.9909C38.6569 25.2159 38.5662 25.4216 38.4563 25.608C38.3883 25.7285 38.3123 25.8409 38.2282 25.9452C38.022 26.2013 37.7674 26.4089 37.4642 26.568C37.0482 26.792 36.5362 26.904 35.9283 26.904C35.2989 26.904 34.7442 26.792 34.2643 26.568C33.7949 26.344 33.4269 26.024 33.1602 25.608C32.8936 25.1813 32.7602 24.6747 32.7602 24.088C32.7602 23.448 32.9256 22.9253 33.2562 22.52C33.5869 22.104 34.0509 21.8 34.6482 21.608C35.2456 21.4053 35.9336 21.304 36.7122 21.304H37.7962H38.0843H38.2962V21.272C38.2962 21.0994 38.2804 20.9434 38.2487 20.804C38.1982 20.5817 38.1074 20.4017 37.9762 20.264C37.7629 20.04 37.4216 19.928 36.9522 19.928C36.7176 19.928 36.4082 19.9333 36.0242 19.944C35.6403 19.9547 35.2456 19.9707 34.8402 19.992C34.6288 20.0031 34.4274 20.0143 34.2363 20.0254C34.061 20.0356 33.8944 20.0458 33.7363 20.056V19.555V17.896C33.9816 17.8747 34.2696 17.8533 34.6003 17.832C34.9309 17.8107 35.2722 17.7947 35.6243 17.784C35.9762 17.7733 36.3069 17.768 36.6162 17.768C37.5123 17.768 38.2643 17.896 38.8723 18.152ZM36.6963 22.728H37.7962H37.83H38.0843H38.2962V23.228V23.432C38.2846 23.6702 38.254 23.88 38.2044 24.0613L38.1969 24.088C38.1564 24.2283 38.1042 24.3509 38.0403 24.456C38.012 24.5025 37.9821 24.5465 37.9508 24.588C37.8166 24.7655 37.6544 24.8975 37.4642 24.984C37.2402 25.08 36.9843 25.128 36.6963 25.128C36.2483 25.128 35.9016 25.0213 35.6562 24.808C35.4216 24.584 35.3043 24.296 35.3043 23.944C35.3043 23.5707 35.4216 23.2773 35.6562 23.064C35.9016 22.84 36.2483 22.728 36.6963 22.728ZM36.6963 23.228H37.7962V23.4194C37.7761 23.8066 37.7013 24.0512 37.6132 24.196C37.511 24.3638 37.3933 24.4659 37.2621 24.5266C37.1115 24.5902 36.926 24.628 36.6963 24.628C36.3316 24.628 36.1191 24.5433 35.9929 24.438C35.8715 24.3182 35.8043 24.1671 35.8043 23.944C35.8043 23.6842 35.8808 23.5356 35.9926 23.434L35.9934 23.4332C36.1185 23.319 36.3289 23.228 36.6963 23.228ZM48.9282 26.68V27.18H49.4282H51.9883H52.4883V26.68V20.3V19.8V17.912V17.412H51.9883H51.2986L51.4762 16.68L51.8448 17.0179L51.8455 17.0171C52.1734 16.659 52.3282 16.2144 52.3282 15.72C52.3282 15.2228 52.1779 14.7745 51.8451 14.4223C51.4923 14.0252 50.9792 13.876 50.4202 13.876C49.8555 13.876 49.3409 14.0281 48.9797 14.4221L48.979 14.4229C48.6555 14.7772 48.5122 15.2254 48.5122 15.72C48.5122 16.2084 48.6579 16.6503 48.972 17.0093L48.9793 17.0176L48.9869 17.0256C49.1563 17.2027 49.3584 17.3284 49.5826 17.412H49.4282H48.9282H48.2602H47.7602V17.912V19.8V20.3H48.2602H48.9282V26.68ZM51.1773 17.912L51.2986 17.412H51.2534L51.1344 17.912H49.9282H49.4282H48.9282H48.7602H48.2602V18.412V19.3V19.8H48.7602H48.9282H49.4282V20.3V25.0795L48.9282 27.18L49.4282 25.1196V26.18V26.68H49.9282H51.4883H51.9883V26.18V20.3V19.8V19.3V18.412V17.912H51.4883H51.1773ZM49.4282 25.1196L51.1773 17.912H51.1344L49.4282 25.0795V25.1196ZM49.0122 15.72C49.0122 16.104 49.1242 16.424 49.3483 16.68L51.4762 14.76C51.2523 14.504 50.9002 14.376 50.4202 14.376C49.9402 14.376 49.5829 14.504 49.3483 14.76C49.1242 15.0053 49.0122 15.3253 49.0122 15.72ZM59.936 26.68V27.18H60.436H62.996H63.496V26.68V21.576C63.496 21.1895 63.6059 20.9278 63.7879 20.7391C63.9809 20.5393 64.2344 20.428 64.596 20.428C64.9494 20.428 65.1815 20.5352 65.3496 20.7162C65.5281 20.9084 65.632 21.1644 65.632 21.528V26.68V27.18H66.132H68.692H69.192V26.68V21.672C69.192 20.2668 68.9126 19.1233 68.2647 18.3335C67.6179 17.5209 66.6819 17.14 65.54 17.14H65.428C64.6808 17.14 64.0124 17.3067 63.4476 17.6662C63.2731 17.7772 63.1134 17.9045 62.968 18.0471V17.912V17.412H62.468H60.436H59.936V17.912V26.68ZM64.596 19.928C64.116 19.928 63.7267 20.0827 63.428 20.392C63.14 20.6907 62.996 21.0853 62.996 21.576V26.18V26.68H62.496H60.936H60.436V26.18V18.412V17.912H60.936H61.968H62.468V18.412V18.6878V19.3566V19.36V20.1043C62.5186 19.8624 62.5826 19.6383 62.66 19.432C62.7467 19.2114 62.8493 19.0112 62.968 18.8313C63.1707 18.5241 63.42 18.2764 63.716 18.088C64.1853 17.7893 64.756 17.64 65.428 17.64H65.54C66.564 17.64 67.3427 17.976 67.876 18.648C68.42 19.3093 68.692 20.3173 68.692 21.672V26.18V26.68H68.192H66.632H66.132V26.18V21.528C66.132 21.0587 65.9933 20.6747 65.716 20.376C65.4387 20.0773 65.0653 19.928 64.596 19.928ZM77.3655 29.992V30.4256L77.7948 30.487C78.1817 30.5422 78.6043 30.586 79.0619 30.6187C79.5211 30.6515 79.9703 30.668 80.4095 30.668C81.6423 30.668 82.6969 30.5091 83.5535 30.1689C84.4351 29.8231 85.1152 29.2683 85.5619 28.4991C86.0047 27.7365 86.2055 26.7713 86.2055 25.64V17.912V17.412H85.7055H83.6735H83.1735V17.912V18.1426C82.9901 17.9715 82.789 17.8206 82.5702 17.6909C81.9677 17.3274 81.2675 17.156 80.4895 17.156C79.8204 17.156 79.1966 17.2793 78.6256 17.5337C78.0616 17.7743 77.572 18.1188 77.1613 18.5657C76.7511 19.0121 76.4403 19.5344 76.2271 20.1266C76.0138 20.719 75.9095 21.3529 75.9095 22.024V22.392C75.9095 23.0601 76.0075 23.6909 76.2081 24.281L76.2091 24.2839C76.41 24.8628 76.7021 25.3776 77.0873 25.8231C77.4754 26.2719 77.9432 26.6238 78.4861 26.8771L78.486 26.8773L78.4981 26.8825C79.0587 27.1262 79.6716 27.244 80.3295 27.244C81.0928 27.244 81.7796 27.085 82.3706 26.7456L82.3706 26.7456L82.3774 26.7416C82.4823 26.6791 82.5829 26.6118 82.6792 26.5399C82.6464 26.631 82.6072 26.7108 82.563 26.7804L82.5592 26.7867C82.4266 27.003 82.2072 27.1851 81.8537 27.3144L81.8499 27.3158C81.5007 27.4468 81.0069 27.524 80.3455 27.524C79.9907 27.524 79.5905 27.5037 79.1438 27.4622L79.1438 27.462L79.1331 27.4613C78.6947 27.43 78.296 27.3884 77.9362 27.337L77.3655 27.2555V27.832V29.992ZM85.1295 28.248C84.7455 28.9093 84.1588 29.3947 83.3695 29.704C82.5908 30.0133 81.6042 30.168 80.4095 30.168C79.9828 30.168 79.5455 30.152 79.0975 30.12C78.6495 30.088 78.2388 30.0453 77.8655 29.992V28.3369V27.832C78.0253 27.8548 78.192 27.8757 78.3655 27.8946C78.5973 27.9199 78.8413 27.9417 79.0975 27.96C79.5562 28.0027 79.9722 28.024 80.3455 28.024C81.0388 28.024 81.5988 27.944 82.0255 27.784C82.4628 27.624 82.7828 27.3787 82.9855 27.048C83.167 26.7614 83.2672 26.3979 83.2862 25.9574C83.2884 25.906 83.2895 25.8535 83.2895 25.8V25.032C83.1508 25.3093 82.9842 25.5547 82.7895 25.768C82.5948 25.9813 82.3722 26.1627 82.1215 26.312C81.6202 26.6 81.0228 26.744 80.3295 26.744C79.7322 26.744 79.1882 26.6373 78.6975 26.424C78.2175 26.2 77.8068 25.8907 77.4655 25.496C77.1242 25.1013 76.8628 24.6427 76.6815 24.12C76.5002 23.5867 76.4095 23.0107 76.4095 22.392V22.024C76.4095 21.4053 76.5055 20.8293 76.6975 20.296C76.8895 19.7627 77.1668 19.2987 77.5295 18.904C77.8922 18.5093 78.3242 18.2053 78.8255 17.992C79.3268 17.768 79.8815 17.656 80.4895 17.656C81.1935 17.656 81.8015 17.8107 82.3135 18.12C82.6453 18.3164 82.932 18.5708 83.1735 18.8832C83.3124 19.0629 83.4364 19.2619 83.5455 19.48C83.5915 19.5719 83.6341 19.6667 83.6735 19.7644V19.416V18.7191V18.412V17.912H84.1735H85.2055H85.7055V18.412V25.64C85.7055 26.7173 85.5135 27.5867 85.1295 28.248ZM83.2415 22.36L83.2415 22.3721C83.2398 22.8362 83.1439 23.2322 82.9535 23.56C82.7722 23.8907 82.5215 24.1467 82.2015 24.328C81.8815 24.4987 81.5242 24.584 81.1295 24.584C80.7135 24.584 80.3402 24.4933 80.0095 24.312C79.6895 24.12 79.4335 23.848 79.2415 23.496C79.0602 23.1333 78.9695 22.7013 78.9695 22.2C78.9695 21.7093 79.0602 21.2827 79.2415 20.92C79.4228 20.5573 79.6788 20.2747 80.0095 20.072C80.3402 19.8693 80.7188 19.768 81.1455 19.768C81.5082 19.768 81.8495 19.8533 82.1695 20.024C82.4895 20.184 82.7455 20.424 82.9375 20.744C83.0443 20.907 83.123 21.0908 83.1735 21.2953C83.2075 21.4328 83.2287 21.5797 83.2372 21.736C83.2401 21.7883 83.2415 21.8416 83.2415 21.896V22.36ZM82.5151 23.3196C82.3783 23.569 82.1949 23.7557 81.9605 23.8899C81.7206 24.0166 81.447 24.084 81.1295 24.084C80.7926 24.084 80.5061 24.0121 80.2585 23.8782C80.0264 23.7371 79.835 23.537 79.6848 23.2644C79.5478 22.9869 79.4695 22.6375 79.4695 22.2C79.4695 21.7709 79.5486 21.4238 79.6887 21.1436C79.8302 20.8606 80.0235 20.6498 80.2708 20.4983C80.5151 20.3486 80.8015 20.268 81.1455 20.268C81.4261 20.268 81.6866 20.3331 81.9342 20.4652L81.9341 20.4653L81.9459 20.4712C82.1771 20.5868 82.3635 20.7591 82.5088 21.0012L82.5138 21.0097L82.5193 21.018C82.657 21.2283 82.7415 21.5112 82.7415 21.896V22.36C82.7415 22.7611 82.6598 23.0701 82.5211 23.3089L82.521 23.3089L82.5151 23.3196Z" fill="#324766"/>
</svg>
